<svg width="48" height="38" viewBox="0 0 48 38" fill="none" xmlns="http://www.w3.org/2000/svg">
<path d="M26.4551 1H9.67251C8.11984 1 7.15934 2.6922 7.95533 4.02532L9.88611 7.25896C10.247 7.86346 10.8992 8.23364 11.6033 8.23364H24.5244C25.2284 8.23364 25.8806 7.86346 26.2415 7.25896L28.1723 4.02532C28.9683 2.6922 28.0078 1 26.4551 1Z" fill="url(#paint0_linear_126_83)"/>
<path d="M44.5112 1H40.1763C39.4846 1 38.8419 1.35747 38.4771 1.94519L30.5655 14.6903C30.2006 15.278 29.558 15.6355 28.8662 15.6355H13.0835C12.3844 15.6355 11.736 16.0006 11.3735 16.5984L0.842013 33.9629C0.0336378 35.2957 0.993235 37 2.55208 37H7.12155C7.8133 37 8.45594 36.6425 8.82078 36.0548L16.7324 23.3097C17.0972 22.722 17.7399 22.3645 18.4316 22.3645H34.3428C35.053 22.3645 35.7099 21.9879 36.0687 21.3751L46.237 4.01064C47.0178 2.67734 46.0562 1 44.5112 1Z" fill="url(#paint1_linear_126_83)"/>
<path d="M36.3041 29.9346H22.7598C22.0631 29.9346 21.4167 30.2971 21.0534 30.8914L19.1794 33.9569C18.3648 35.2896 19.3239 37 20.8859 37H38.178C39.74 37 40.6991 35.2896 39.8844 33.9569L38.0105 30.8914C37.6471 30.2971 37.0007 29.9346 36.3041 29.9346Z" fill="url(#paint2_linear_126_83)"/>
<path d="M26.4551 1H9.67251C8.11984 1 7.15934 2.6922 7.95533 4.02532L9.88611 7.25896C10.247 7.86346 10.8992 8.23364 11.6033 8.23364H24.5244C25.2284 8.23364 25.8806 7.86346 26.2415 7.25896L28.1723 4.02532C28.9683 2.6922 28.0078 1 26.4551 1Z" stroke="#009AFF"/>
<path d="M44.5112 1H40.1763C39.4846 1 38.8419 1.35747 38.4771 1.94519L30.5655 14.6903C30.2006 15.278 29.558 15.6355 28.8662 15.6355H13.0835C12.3844 15.6355 11.736 16.0006 11.3735 16.5984L0.842013 33.9629C0.0336378 35.2957 0.993235 37 2.55208 37H7.12155C7.8133 37 8.45594 36.6425 8.82078 36.0548L16.7324 23.3097C17.0972 22.722 17.7399 22.3645 18.4316 22.3645H34.3428C35.053 22.3645 35.7099 21.9879 36.0687 21.3751L46.237 4.01064C47.0178 2.67734 46.0562 1 44.5112 1Z" stroke="#009AFF"/>
<path d="M36.3041 29.9346H22.7598C22.0631 29.9346 21.4167 30.2971 21.0534 30.8914L19.1794 33.9569C18.3648 35.2896 19.3239 37 20.8859 37H38.178C39.74 37 40.6991 35.2896 39.8844 33.9569L38.0105 30.8914C37.6471 30.2971 37.0007 29.9346 36.3041 29.9346Z" stroke="#009AFF"/>
<defs>
<linearGradient id="paint0_linear_126_83" x1="23.5" y1="1" x2="23.5" y2="37" gradientUnits="userSpaceOnUse">
<stop stop-color="#0C97F1"/>
<stop offset="1" stop-color="#07578B"/>
</linearGradient>
<linearGradient id="paint1_linear_126_83" x1="23.5" y1="1" x2="23.5" y2="37" gradientUnits="userSpaceOnUse">
<stop stop-color="#0C97F1"/>
<stop offset="1" stop-color="#07578B"/>
</linearGradient>
<linearGradient id="paint2_linear_126_83" x1="23.5" y1="1" x2="23.5" y2="37" gradientUnits="userSpaceOnUse">
<stop stop-color="#0C97F1"/>
<stop offset="1" stop-color="#07578B"/>
</linearGradient>
</defs>
</svg>
